<?xml version="1.0" encoding="UTF-8"?>
<svg width="127px" height="31px" viewBox="0 0 127 31" version="1.1" xmlns="http://www.w3.org/2000/svg" xmlns:xlink="http://www.w3.org/1999/xlink">
    <!-- Generator: Sketch 58 (84663) - https://sketch.com -->
    <title>Group 2</title>
    <desc>Created with Sketch.</desc>
    <g id="Page-1" stroke="none" stroke-width="1" fill="none" fill-rule="evenodd">
        <g id="landing-page" transform="translate(-118.000000, -325.000000)" fill="#FFFFFF">
            <g id="Group-2" transform="translate(118.000000, 325.000000)">
                <text id="oreRave" font-family="Campton-Book, Campton" font-size="23" font-weight="300" letter-spacing="1.31976136">
                    <tspan x="31" y="30">oreRave</tspan>
                </text>
                <g id="wave" fill-rule="nonzero">
                    <path d="M25.3124506,30 C24.8999807,30 24.5343564,29.7281782 24.414298,29.3325293 L19.468087,12.8489475 L14.9005959,21.9849909 C14.7505669,22.2830898 14.4543761,22.481793 14.1205681,22.5006 C13.7699731,22.5287225 13.4680694,22.3637663 13.2824448,22.0843865 L9.80998084,16.8760939 L0.937527466,16.8760939 C0.420028477,16.8761818 0,16.4561893 0,15.9387348 C0,15.4212802 0.420028477,15.0012878 0.937527466,15.0012878 L10.3125385,15.0012878 C10.6256921,15.0012878 10.9181916,15.1569284 11.0925662,15.4193468 L13.9462814,19.6995959 L18.8494261,9.89608183 C19.0200214,9.55298696 19.378175,9.33178568 19.768145,9.38240623 C20.1506442,9.41615327 20.4750479,9.67865952 20.5856141,10.046098 L25.1306052,25.1947384 L30.0187207,0.756259441 C30.1087205,0.304453413 30.5155654,-0.0330169524 30.9768145,0.0025756252 C31.4380636,0.0232281085 31.8167836,0.375638568 31.8693421,0.835002526 L33.5962137,16.3717339 L36.142488,15.09875 C36.2737084,15.0350348 36.4181125,15.0012878 36.5625165,15.0012878 L44.0624725,15.0012878 C44.5799715,15.0012878 45,15.4212802 45,15.9387348 C45,16.4561893 44.5799715,16.8761818 44.0624725,16.8761818 L36.7837368,16.8761818 L33.2305894,18.6516801 C32.9568106,18.7885138 32.6361863,18.7810438 32.3624954,18.6366522 C32.0924959,18.490415 31.914342,18.2204387 31.8787463,17.9167154 L30.6693737,7.04269959 L26.2312574,29.2464041 C26.1468825,29.6700876 25.7868832,29.9794354 25.3556048,29.9982423 C25.3424212,30 25.3274798,30 25.3124506,30 Z" id="Path"></path>
                </g>
            </g>
        </g>
    </g>
</svg>