<?xml version="1.0" encoding="UTF-8"?>
<svg width="26px" height="17px" viewBox="0 0 26 17" version="1.1" xmlns="http://www.w3.org/2000/svg" xmlns:xlink="http://www.w3.org/1999/xlink">
    <!-- Generator: Sketch 58 (84663) - https://sketch.com -->
    <title>wave</title>
    <desc>Created with Sketch.</desc>
    <g id="Page-1" stroke="none" stroke-width="1" fill="none" fill-rule="evenodd">
        <g id="landing-page" transform="translate(-46.000000, -67.000000)" fill="#036DF9" fill-rule="nonzero">
            <g id="Group-2" transform="translate(46.000000, 67.000000)">
                <g id="wave">
                    <path d="M14.6249714,17 C14.3866555,17 14.1754059,16.8459676 14.1060389,16.6217666 L11.248228,7.28107026 L8.60923319,12.4581615 C8.52254976,12.6270842 8.35141728,12.7396827 8.15855047,12.75034 C7.95598446,12.7662761 7.78155121,12.6728009 7.67430142,12.5144857 L5.66798893,9.56311987 L0.541682536,9.56311987 C0.24268312,9.56316967 0,9.32517396 0,9.03194971 C0,8.73872546 0.24268312,8.50072976 0.541682536,8.50072976 L5.95835555,8.50072976 C6.13928879,8.50072976 6.30828846,8.58892612 6.40903826,8.73762986 L8.05785145,11.1631044 L10.8907795,5.6077797 C10.9893457,5.41335928 11.1962789,5.28801188 11.4215949,5.31669687 C11.6425944,5.33582019 11.8300277,5.48457373 11.8939104,5.69278884 L14.5199052,14.2770184 L17.3441497,0.428547016 C17.3961496,0.172523601 17.6312156,-0.0187096063 17.897715,0.00145952095 C18.1642145,0.0131625948 18.3830305,0.212861855 18.4133976,0.473168098 L19.4111457,9.27731586 L20.8823264,8.55595831 C20.9581427,8.51985308 21.0415761,8.50072976 21.1250095,8.50072976 L25.4583175,8.50072976 C25.7573169,8.50072976 26,8.73872546 26,9.03194971 C26,9.32517396 25.7573169,9.56316967 25.4583175,9.56316967 L21.2528257,9.56316967 L19.1998961,10.5692854 C19.0417128,10.6468245 18.8564632,10.6425915 18.6983307,10.5607696 C18.542331,10.4779018 18.4393976,10.3249153 18.4188312,10.1528054 L17.7200826,3.9908631 L15.1558376,16.5729623 C15.1070877,16.8130496 14.8990881,16.9883467 14.649905,16.999004 C14.6422878,17 14.633655,17 14.6249714,17 Z" id="Path"></path>
                </g>
            </g>
        </g>
    </g>
</svg>